Coordinates
nRows=140
nColumns=2
inDegrees=yes
endheader
time	ankle_angle_r	
3	 -5.435762	
3.0625	 -5.409241	
3.125	 -5.397615	
3.1875	 -5.412692	
3.25	 -5.397252	
3.3125	 -5.416870	
3.375	 -5.437942	
3.4375	 -5.391802	
3.5	 -5.416870	
3.5625	 -5.406334	
3.625	 -5.396162	
3.6875	 -5.420866	
3.75	 -5.371094	
3.8125	 -5.398342	
3.875	 -5.423046	
3.9375	 -5.401611	
4	 -5.401611	
4.0625	 -5.420503	
4.125	 -5.348932	
4.1875	 -5.394527	
4.25	 -5.332583	
4.3125	 -5.378541	
4.375	 -5.401611	
4.4375	 -5.340576	
4.5	 -5.386353	
4.5625	 -5.386353	
4.625	 -5.300250	
4.6875	 -5.364373	
4.75	 -5.327497	
4.8125	 -5.340576	
4.875	 -5.395435	
4.9375	 -5.361829	
5	 -5.392165	
5.0625	 -5.391984	
5.125	 -5.361285	
5.1875	 -5.386353	
5.25	 -5.386353	
5.3125	 -5.391802	
5.375	 -5.426316	
5.4375	 -5.406153	
5.5	 -5.416870	
5.5625	 -5.387806	
5.625	 -5.298796	
5.6875	 -5.344391	
5.75	 -5.344209	
5.8125	 -5.291348	
5.875	 -5.349296	
5.9375	 -5.310059	
6	 -5.374000	
6.0625	 -5.322593	
6.125	 -5.276998	
6.1875	 -5.325317	
6.25	 -5.299160	
6.3125	 -5.292802	
6.375	 -5.355835	
6.4375	 -5.369459	
6.5	 -5.326771	
6.5625	 -5.357107	
6.625	 -5.325317	
6.6875	 -5.339668	
6.75	 -5.342030	
6.8125	 -5.340031	
6.875	 -5.401975	
6.9375	 -5.340394	
7	 -5.355835	
7.0625	 -5.416870	
7.125	 -5.325317	
7.1875	 -5.342211	
7.25	 -5.371094	
7.3125	 -5.294800	
7.375	 -5.385262	
7.4375	 -5.402883	
7.5	 -5.357288	
7.5625	 -5.372729	
7.625	 -5.311875	
7.6875	 -5.390349	
7.75	 -5.386353	
7.8125	 -5.381629	
7.875	 -5.429586	
7.9375	 -5.414145	
8	 -5.411057	
8.0625	 -5.432129	
8.125	 -5.355835	
8.1875	 -5.386353	
8.25	 -5.401611	
8.3125	 -5.371094	
8.375	 -5.432129	
8.4375	 -5.416870	
8.5	 -5.397252	
8.5625	 -5.436670	
8.625	 -5.355835	
8.6875	 -5.381448	
8.75	 -5.411784	
8.8125	 -5.381084	
8.875	 -5.443028	
8.9375	 -5.416870	
9	 -5.416870	
9.0625	 -5.428859	
9.125	 -5.377270	
9.1875	 -5.377451	
9.25	 -5.386353	
9.3125	 -5.377815	
9.375	 -5.401611	
9.4375	 -5.371094	
9.5	 -5.363828	
9.5625	 -5.401611	
9.625	 -5.294800	
9.6875	 -5.378541	
9.75	 -5.409604	
9.8125	 -5.483900	
9.875	 -5.570911	
9.9375	 -5.516961	
10	 -5.419050	
10.0625	 -5.441030	
10.125	 -5.374363	
10.1875	 -5.371094	
10.25	 -5.399432	
10.3125	 -5.365462	
10.375	 -5.386353	
10.4375	 -5.300068	
10.5	 -5.310059	
10.5625	 -5.330222	
10.625	 -5.299523	
10.6875	 -5.233765	
10.75	 -5.325317	
10.8125	 -5.340576	
10.875	 -5.340576	
10.9375	 -5.336761	
11	 -5.321684	
11.0625	 -5.386353	
11.125	 -5.398342	
11.1875	 -5.340576	
11.25	 -5.337670	
11.3125	 -5.380903	
11.375	 -5.340576	
11.4375	 -5.401611	
11.5	 -5.314418	
11.5625	 -5.401611	
11.625	 -5.428496	
11.6875	 -5.322048	
